# xmcd
# Copyright (C) 1995-1998 Ti Kan
#
# Track frame offsets:
#       150
#       22516
#       37312
#
# Disc length: 778 seconds
#
# Revision: 0
# Processed by: cddbd v1.5.2PL0 Copyright (c) Steve Scherf et al.
# Submitted via: CD-Import v1.0
#
DISCID=19030803
DTITLE=Dig It - Bouge!
DYEAR=08
DGENRE=
TTITLE0=Bouge!
TTITLE1=Thelife You Want
TTITLE2=Style
EXTD=
EXTT0=
EXTT1=
EXTT2=
PLAYORDER=
